<svg xmlns="http://www.w3.org/2000/svg" width="2277" height="639" style="shape-rendering:geometricPrecision;text-rendering:geometricPrecision;image-rendering:optimizeQuality;fill-rule:evenodd;clip-rule:evenodd"><path style="opacity:.04" fill="#efc72f" d="M1981.5 18.5a24.93 24.93 0 0 1 7 .5c1.94.908 2.94 2.408 3 4.5-7.29.988-14.63 1.655-22 2l-10-1c-.83-.951-.99-1.951-.5-3 6.48 1.29 12.98 1.123 19.5-.5 1.44-.377 2.44-1.21 3-2.5z"/><path style="opacity:.743" fill="#efc72f" d="M2140.5 579.5a432.269 432.269 0 0 0-17 11.5 8.43 8.43 0 0 1-4 .5v3a42.334 42.334 0 0 1-9 3v3a292.99 292.99 0 0 1-11 3.5c1.33.667 1.33 1.333 0 2-6.88 1.923-12.88 4.257-18 7 .33.333.67.667 1 1a115.881 115.881 0 0 1-20 6c-2.54 2.093-5.54 3.093-9 3-2.54 2.093-5.54 3.093-9 3-.46.414-.79.914-1 1.5-7.6.868-14.93 2.368-22 4.5-.46.414-.79.914-1 1.5a130.41 130.41 0 0 1-16 1.5c-2.05 1.842-4.38 3.009-7 3.5h-80c-2.29-.558-4.29-1.724-6-3.5-9.02-.354-17.69-1.687-26-4-.67-.667-1.33-1.333-2-2l-9-1c-.67-.667-1.33-1.333-2-2a167.13 167.13 0 0 1-16-4c-.67-.667-1.33-1.333-2-2-4.78-1.728-9.78-2.728-15-3 .67-.333 1.33-.667 2-1a25.743 25.743 0 0 0-8-2c.33-.333.67-.667 1-1a22.485 22.485 0 0 0-7-2c.33-.333.67-.667 1-1a54.628 54.628 0 0 0-7-2c.33-.333.67-.667 1-1l-5-1c-1.18-1.813-3.18-3.313-6-4.5-1.55-.952-3.21-1.285-5-1v-3c-1.7.16-3.37-.006-5-.5a342.131 342.131 0 0 1-33-24.5c-1.19-.929-2.52-1.262-4-1v-3a86.068 86.068 0 0 1-14-9.5c.33-.333.67-.667 1-1a556.998 556.998 0 0 0-20-19.5c-.85-1.466-2.18-2.3-4-2.5.33-.333.67-.667 1-1a40.767 40.767 0 0 0-4-4.5c.21-.586.54-1.086 1-1.5a141.575 141.575 0 0 1-8.5-7.5c-2.1-4.989-5.1-9.323-9-13a8.394 8.394 0 0 1-.5-4h-3a284.49 284.49 0 0 1-3.5-8 190.022 190.022 0 0 1-11-16 1036.329 1036.329 0 0 0-17-37c-.33-2.333-.67-4.667-1-7-1.67-3.667-3.33-7.333-5-11-2.07-7.605-4.07-15.271-6-23a557.591 557.591 0 0 1-6-35 956.47 956.47 0 0 1 0-62 734.256 734.256 0 0 1 6-37c.33-1.333.67-2.667 1-4 .33.333.67.667 1 1a74.846 74.846 0 0 1 2-12c.33.333.67.667 1 1 .33-2.667.67-5.333 1-8a218.566 218.566 0 0 0 6-19c.67-1.333 1.33-1.333 2 0a43.2 43.2 0 0 1 2-9c.33.333.67.667 1 1 .19-2.077.69-4.077 1.5-6a41.26 41.26 0 0 1 5-8c-.98-1.598-1.15-3.265-.5-5 .41.457.91.791 1.5 1 2.95-5.565 5.29-11.232 7-17h3v-4h3v-5h3c.23-3.382 1.23-6.382 3-9h3c.23-3.382 1.23-6.382 3-9h3c-.29-1.788.05-3.455 1-5a74.261 74.261 0 0 0 7.5-7c1.67-1.669 2.5-3.669 2.5-6h3a4.949 4.949 0 0 1 .5-3 796.936 796.936 0 0 1 23.5-24c.82-.886 1.82-1.219 3-1v-3h3v-3c1.48.262 2.81-.071 4-1a3.627 3.627 0 0 0-1-1.5c2.68-.249 5.01-1.249 7-3 10.38-9.573 21.72-17.573 34-24-.33-.333-.67-.667-1-1 3.19-.846 6.03-2.346 8.5-4.5.33.333.67.667 1 1 4.14-3.643 8.64-6.643 13.5-9 .59.21 1.09.543 1.5 1a507.84 507.84 0 0 1 30.5-14 347.182 347.182 0 0 1 28-7.5c1.33-.667 1.33-1.333 0-2l13-1c1.33-.667 1.33-1.333 0-2l16-1c.46-.414.79-.914 1-1.5 9.65-.832 19.32-1.332 29-1.5.33-.333.67-.667 1-1l-3-1c11.67-.667 23.33-.667 35 0-1.8.317-2.13.984-1 2 9.66.5 19.33.666 29 .5v3h17v3c4.01-.166 8.01.001 12 .5-1.33.667-1.33 1.333 0 2 3.65.499 7.32.665 11 .5v3c3.02-.165 6.02.002 9 .5-1.33.667-1.33 1.333 0 2a34.2 34.2 0 0 1 8 1.5 54.61 54.61 0 0 1 9 4.5l6 1c5.57 4.32 11.91 6.986 19 8-.33.333-.67.667-1 1a433.599 433.599 0 0 1 35 18.5v3c1.37-.157 2.71.01 4 .5a653.338 653.338 0 0 1 20 17c1.99 1.751 4.32 2.751 7 3-1.11 1.813-.44 2.646 2 2.5v3c4.9 1.235 8.24 4.235 10 9 1.18-.219 2.18.114 3 1 2.47 3.803 5.63 6.803 9.5 9 .2 1.756.7 3.422 1.5 5 1.59 1.587 3.25 2.42 5 2.5-.67.333-1.33.667-2 1 5.46 4.178 9.46 9.344 12 15.5h3v3h3c.18 3.337 1.18 6.337 3 9h3c.23 3.382 1.23 6.382 3 9h3a58.36 58.36 0 0 0 3 11h3c1.93 2.6 3.6 5.933 5 10 .97 2.243 1.31 4.576 1 7 2.44-.146 3.11.687 2 2.5 1.33 1.333 2.67 2.667 4 4-.46.414-.79.914-1 1.5a574.199 574.199 0 0 1 11.5 27 212.733 212.733 0 0 0 9 31c-.1 6.39 1.23 12.39 4 18 .43 29.977.6 59.81.5 89.5a698.772 698.772 0 0 0-7.5 37.5c-.41.457-.91.791-1.5 1a332.677 332.677 0 0 1-10.5 34c-3.99 5.658-6.65 11.991-8 19-2.79.722-3.62 2.222-2.5 4.5-2.39 1.852-3.55 4.352-3.5 7.5-1.67 1.667-3.33 3.333-5 5a132.37 132.37 0 0 1-9.5 19h-3v3h-3c.16 1.699-.01 3.366-.5 5-1.71.808-2.54 2.141-2.5 4h-3c-.85 2.723-2.02 5.39-3.5 8-4.8 2.622-7.3 6.622-7.5 12-3.36-.71-5.19.624-5.5 4a346.57 346.57 0 0 0-18.5 18 89.097 89.097 0 0 1-7 4v3a4.939 4.939 0 0 0-3 .5c-5.13 4.532-10.13 9.032-15 13.5zm12-453a6.575 6.575 0 0 1 3 3c1.55.321 2.21 1.321 2 3 1.18-.219 2.18.114 3 1 1.8 1.195 2.8 2.862 3 5h3v3h3v3h3v3h3c.67 2 1.33 4 2 6a4.939 4.939 0 0 1 3 .5c-.92.85-.92 1.85 0 3 4.12 3.551 7.46 7.717 10 12.5a27.318 27.318 0 0 1 6 8c.93 1.189 1.26 2.522 1 4h3c.28 4.128 2.11 7.462 5.5 10a63.21 63.21 0 0 1 4 10 9.39 9.39 0 0 0 2.5 1.5c-1.32 1.978-.82 3.478 1.5 4.5.33 1.667.67 3.333 1 5 3.91 6.8 7.58 13.8 11 21a432.298 432.298 0 0 1 6 17c.5 2.982.66 5.982.5 9h3c-.17 3.35 0 6.683.5 10 .67.667 1.33 1.333 2 2-.11 4.676.89 9.009 3 13a494.578 494.578 0 0 1-.5 104c-.59.209-1.09.543-1.5 1-.33 3.667-.67 7.333-1 11-.41.457-.91.791-1.5 1-.87 6.939-2.37 13.606-4.5 20a189.578 189.578 0 0 0-6.5 17 3.595 3.595 0 0 1-1.5-1c-.43 5.072-1.76 9.738-4 14a267.014 267.014 0 0 1-5.5 9c.11.942.44 1.775 1 2.5-3.38.722-4.38 2.555-3 5.5-.82.886-1.82 1.219-3 1v6h-3c-.09 3.485-1.26 6.485-3.5 9-.67-1.333-1.33-1.333-2 0-2.3 5.629-5.3 10.963-9 16-2.75 1.434-4.25 3.767-4.5 7l-6 6c-3.93 6.925-8.93 12.925-15 18-.82.886-1.82 1.219-3 1-5.55 7.672-12.05 14.672-19.5 21-.33-.333-.67-.667-1-1a4.949 4.949 0 0 0-.5 3h-4v3a131.19 131.19 0 0 1-7 3.5c1.33.667 1.33 1.333 0 2a8.43 8.43 0 0 1-4 .5v3c-1.48-.262-2.81.071-4 1-7.16 6.826-15.83 12.326-26 16.5a66.483 66.483 0 0 0-7 5 256.581 256.581 0 0 1-17 6c-1.33.667-1.33 1.333 0 2a957.493 957.493 0 0 1-22 7c-2.5 2.212-5.5 3.045-9 2.5v3a40.9 40.9 0 0 0-9 .5c-.46.414-.79.914-1 1.5-7.95 2.549-16.29 4.049-25 4.5a7.32 7.32 0 0 1-3 2c-8.83-.031-17.5.969-26 3a361.07 361.07 0 0 1-38 0 122.827 122.827 0 0 0-27-3c-1.33-.667-2.67-1.333-4-2-8.56-.598-16.89-1.931-25-4-.67-.667-1.33-1.333-2-2a528.63 528.63 0 0 1-25-7c.33-.333.67-.667 1-1a618.48 618.48 0 0 1-26-10c-1.8-.317-2.13-.984-1-2a18.44 18.44 0 0 0-6-.5v-3c-1.7.16-3.37-.006-5-.5-1.33-.667-1.33-1.333 0-2-3.29-.253-6.29-1.253-9-3a75.846 75.846 0 0 1-19-13.5c-1.19-.929-2.52-1.262-4-1v-3a4.939 4.939 0 0 1-3-.5c-1.33-.667-1.33-1.333 0-2a8.43 8.43 0 0 0-4-.5v-3a4.939 4.939 0 0 1-3-.5c-1.33-.667-1.33-1.333 0-2-2.24-.05-3.91-.883-5-2.5-3.02-1.022-5.02-3.022-6-6a76.615 76.615 0 0 1-13.5-12 41.302 41.302 0 0 0-8.5-9c-.89-.825-1.22-1.825-1-3-2.26-.639-4.26-1.806-6-3.5.33-.333.67-.667 1-1-3.8-4.666-8.13-9.5-13-14.5-.43-4.087-2.43-7.087-6-9-.97-1.896-1.3-3.896-1-6-3.75-1.257-5.91-3.924-6.5-8a535.555 535.555 0 0 1-5.5-8c1.51-2.338 1.18-3.004-1-2-.33-.5-.67-1-1-1.5-.47-1.704-.64-3.538-.5-5.5-.41.457-.91.791-1.5 1a27.05 27.05 0 0 1-1.5-7c-.33.667-.67 1.333-1 2a25.805 25.805 0 0 1-2-8c-.33.667-.67 1.333-1 2a25.805 25.805 0 0 1-2-8c-.67 1.333-1.33 1.333-2 0-.33-2-.67-4-1-6a9.39 9.39 0 0 0-2.5-1.5c.28-1.956.28-4.123 0-6.5h-3v-9h-3c.16-3.018 0-6.018-.5-9-.33.333-.67.667-1 1-1.75-1.554-1.91-3.22-.5-5-6.63-21.735-9.63-44.068-9-67-1.3-1.897-1.97-4.231-2-7a660.903 660.903 0 0 1 5.5-56c3.73-10.813 6.23-21.813 7.5-33h3c-.16-2.687 0-5.354.5-8 .67-1.333 1.33-1.333 2 0 .33-2.667.67-5.333 1-8a39.27 39.27 0 0 0 4.5-7 20.078 20.078 0 0 0 1.5-6c.67-1.333 1.33-1.333 2 0 .33-2 .67-4 1-6 .67-1.333 1.33-1.333 2 0 .5-2.31.66-4.643.5-7 2.44.146 3.11-.687 2-2.5a26.698 26.698 0 0 1 2-3.5c2.18 1.004 2.51.338 1-2 3.92-4.892 6.92-10.225 9-16h3c-.16-1.699.01-3.366.5-5 3.92-5.76 8.42-11.093 13.5-16 1.87-3.29 3.53-6.623 5-10h3v-3h3c-.22-1.175.11-2.175 1-3a233.495 233.495 0 0 1 16-15c.31-1.644 1.31-2.644 3-3 .73-1.545 2.06-2.378 4-2.5a3.627 3.627 0 0 1-1-1.5 10.252 10.252 0 0 1 4-1.5c-.33-.333-.67-.667-1-1 1.67-1 3-2.333 4-4a4.939 4.939 0 0 1 3-.5v-3c2.9-.618 5.56-1.785 8-3.5-.33-.333-.67-.667-1-1 15.65-11.062 30.98-20.062 46-27 1.33-.667 1.33-1.333 0-2 2.45-.29 4.79-.956 7-2-.33-.333-.67-.667-1-1l6-1a45.897 45.897 0 0 1 8-4.5 300.669 300.669 0 0 1 22-7.5c.67-.667 1.33-1.333 2-2 3.99-.031 7.65-1.031 11-3 3.32-.498 6.65-.665 10-.5.11-.617.44-1.117 1-1.5l16-1-3-1c.33-.333.67-.667 1-1l26-1-3-1c.33-.333.67-.667 1-1l24.5-.5c16.32.304 31.82 1.471 46.5 3.5 1.13 1.016.8 1.683-1 2 8.73.507 17.39 1.507 26 3 .67.667 1.33 1.333 2 2l9 1c2.2 2.046 4.87 3.046 8 3 3.39 1.576 6.73 3.242 10 5l7 1c-1.33.667-1.33 1.333 0 2 2.83.047 5.16 1.047 7 3l7 1c-1.33.667-1.33 1.333 0 2a61.504 61.504 0 0 0 11 4c-.33.333-.67.667-1 1a82.112 82.112 0 0 1 11 5c-1.15.914-.99 1.747.5 2.5 1.05-1.017 2.22-1.184 3.5-.5a408.942 408.942 0 0 1 29 20c1.33.667 1.33 1.333 0 2a21.592 21.592 0 0 0 8 3.5v3h3v3h4v3c1.68-.215 2.68.452 3 2z"/><path style="opacity:.942" fill="#efc72f" d="M634.5 57.5a119.282 119.282 0 0 1 32 2.5c22.934 11.425 30.767 29.592 23.5 54.5-9.697 24.586-27.531 35.419-53.5 32.5-13.242-3.33-18.076-11.497-14.5-24.5 2.532-4.407 6.365-6.074 11.5-5 .665 10.511 5.998 13.678 16 9.5 15.072-12.551 20.572-28.385 16.5-47.5-7.864-11.924-18.697-15.424-32.5-10.5-19.066 9.734-32.566 24.567-40.5 44.5-8.489 18.444-11.822 37.777-10 58 5.384 26.441 20.551 34.608 45.5 24.5 10.427-7.092 18.76-16.092 25-27a153.226 153.226 0 0 1 26-4c1.091 2.064 1.258 4.231.5 6.5-4.253 10.744-7.253 21.744-9 33 9.444-5.573 17.777-12.573 25-21 2.497-24.173 13.997-42.673 34.5-55.5 9.218-4.238 18.885-5.571 29-4 14.526 5.543 19.026 15.71 13.5 30.5-6.705 9.697-15.539 16.864-26.5 21.5a888.237 888.237 0 0 1-22 8.5c6.403 20.752 19.403 26.252 39 16.5a136.61 136.61 0 0 0 18.5-16.5 201.583 201.583 0 0 1 17-55 154.34 154.34 0 0 1 29.5-6c-3.257 9.94-6.424 19.94-9.5 30-.667 1.333-.667 2.667 0 4 10.645-13.057 23.145-23.891 37.5-32.5 19.082-4.588 26.916 2.912 23.5 22.5a323.717 323.717 0 0 1-14 43c-3.926 16.222.907 19.389 14.5 9.5a180.42 180.42 0 0 0 15.5-16.5c3.417-21.75 13.917-39.25 31.5-52.5 12.996-8.296 26.663-9.629 41-4 7.064 5.523 9.564 12.69 7.5 21.5a116.756 116.756 0 0 1-22 12c-1.603-1.386-2.437-3.219-2.5-5.5 1.418-6.235 1.252-12.402-.5-18.5-4.827-3.942-9.66-3.775-14.5.5-14.464 18.927-16.631 39.094-6.5 60.5 6.536 7.565 14.702 10.065 24.5 7.5 10.556-4.879 19.723-11.712 27.5-20.5 4.958-40.54 16.958-78.873 36-115a153.811 153.811 0 0 1 32-12c2.67-.333 4.67.667 6 3 4.05 17.691 2.71 35.024-4 52-9.19 21.056-21.86 39.723-38 56-2.23 9.784-1.89 19.451 1 29 4.29 8.082 10.79 10.248 19.5 6.5a125.093 125.093 0 0 0 25.5-20.5 290.35 290.35 0 0 1 16.5-54.5 338.103 338.103 0 0 1 31-5.5 2284.847 2284.847 0 0 1-13.5 45c-3.42 9.747-4.75 19.747-4 30 3.88 3.735 8.05 3.902 12.5.5a159.076 159.076 0 0 0 14.5-15.5c3.59-40.267 16.42-77.267 38.5-111a210.689 210.689 0 0 1 39-14.5c4.93-1.643 8.43-.143 10.5 4.5 3.28 8.652 3.28 17.319 0 26-5.96 13.087-13.79 24.92-23.5 35.5 7.64-.478 15.3-.478 23 0 15.73 6.507 19.56 17.34 11.5 32.5-7.95 7.892-17.45 13.059-28.5 15.5 7.79 2.464 11.79 7.798 12 16a44.973 44.973 0 0 0-.5 14.5c4.23 3.75 8.73 3.916 13.5.5a523.717 523.717 0 0 0 19-19.5 33.225 33.225 0 0 1 .5 14c-9.73 10.738-20.9 19.571-33.5 26.5-15.83 5.416-26 .249-30.5-15.5.57-9.011 1.24-18.011 2-27a41.464 41.464 0 0 0-9.5-3.5c-2.63-3.465-2.63-6.965 0-10.5a334.24 334.24 0 0 1 19-3.5c11.16-4.294 14.16-11.627 9-22-8.5-3.861-16.5-2.861-24 3a74.165 74.165 0 0 0-13.5 15.5c-4.58 20.081-6.42 40.414-5.5 61-9.27 1.767-18.6 3.1-28 4a865.286 865.286 0 0 1-1.5-26 162.9 162.9 0 0 1-22.5 20.5c-6.66 5.129-13.99 6.796-22 5-5.57-3.287-9.07-8.121-10.5-14.5-.79-3.679-1.62-7.346-2.5-11a128.145 128.145 0 0 1-33 23.5c-22.79 7.933-37.128.099-43-23.5-10.267 10.136-21.934 18.303-35 24.5l-6 7c12.979 3.457 17.479 11.624 13.5 24.5-5.575 9.379-13.742 15.212-24.5 17.5a125.947 125.947 0 0 1-25 1.5l1-10c8.72 1.283 16.22-1.05 22.5-7 3.811-10.044.311-15.711-10.5-17l12-13c-18.132-1.978-29.632-11.645-34.5-29-10.046 12.391-22.546 21.224-37.5 26.5-11.471 3.349-19.638-.484-24.5-11.5a71.621 71.621 0 0 1 1-22 360.767 360.767 0 0 1 12-35 31.284 31.284 0 0 0 1.5-10c-3.064-.356-5.731.477-8 2.5-9.944 8.939-18.778 18.772-26.5 29.5a40.413 40.413 0 0 0-3 12 1602.729 1602.729 0 0 0-2.5 29.5 1421.951 1421.951 0 0 0-25.5 6.5 361.587 361.587 0 0 1-2-26c-9.179 9.341-19.679 16.841-31.5 22.5-9.177 2.438-18.511 3.104-28 2-13.609-3.942-22.109-12.775-25.5-26.5a118.413 118.413 0 0 1-28.5 19c-2.613 21.729-11.947 39.896-28 54.5-13.592 10.151-28.258 12.151-44 6-6.058-6.118-7.558-13.284-4.5-21.5 2.969-6.975 7.469-12.808 13.5-17.5a277.191 277.191 0 0 1 27-16.5 162.712 162.712 0 0 0 5.5-21c-12.144 12.405-26.811 19.739-44 22-20.473-2.419-34.139-13.419-41-33-10.651-46.517 2.849-84.35 40.5-113.5 12.688-9.499 26.688-15.999 42-19.5zm409 14c2.41-.363 3.91.637 4.5 3-.99 28.306-10.99 52.973-30 74a356.594 356.594 0 0 1 17-62 82.213 82.213 0 0 1 8.5-15zm144 0c8.51-.977 11.34 2.69 8.5 11-4.21 11.415-10.21 21.749-18 31a324.86 324.86 0 0 1-20 23c4.22-20.12 11.55-39.12 22-57 2.7-2.536 5.2-5.203 7.5-8zm-447 62c8.431-1.237 12.431 2.429 12 11-.504 8.507-3.838 15.674-10 21.5a77.378 77.378 0 0 1-18 9.5c-1.874-16.893 3.46-30.893 16-42zm-114 103a2.428 2.428 0 0 1 2 .5 92.111 92.111 0 0 1-10.5 26.5c-3.641 5.906-8.807 8.073-15.5 6.5-1.797-1.594-2.797-3.594-3-6 1.213-7.221 4.88-12.887 11-17a213.862 213.862 0 0 1 16-10.5z"/><path style="opacity:.965" fill="#efc72f" d="M2157.5 138.5c2.14 3.812 5.14 6.479 9 8v3h3c3.65 5.288 7.32 10.621 11 16a40.508 40.508 0 0 0 6.5 6c.62.949.45 1.782-.5 2.5a46.607 46.607 0 0 0 6 5.5c1.33 1 1.33 2 0 3 .36 1.022 1.02 1.689 2 2 1.01 1.699 2.34 3.199 4 4.5-1.65 2.411-.99 3.578 2 3.5 1.5 6.349 4.33 12.016 8.5 17a61.144 61.144 0 0 1 4 11 39.27 39.27 0 0 1 4.5 7 20.078 20.078 0 0 1 1.5 6c.67 1.333 1.33 1.333 2 0 .33 2.667.67 5.333 1 8 1.67 3.333 3.33 6.667 5 10 .1 3.2.77 6.2 2 9 .33-.667.67-1.333 1-2 .33 4.667.67 9.333 1 14 .67 1.333 1.33 1.333 2 0 .33 5 .67 10 1 15 1.02 1.134 1.68.801 2-1 .17.667.33 1.333.5 2a53.285 53.285 0 0 0-.5 17c.24 2.352 1.07 4.352 2.5 6v48c-.62.111-1.12.444-1.5 1-.46 3.839-.96 7.672-1.5 11.5.76 3.205 1.1 6.372 1 9.5-.17.667-.33 1.333-.5 2-.67-1.333-1.33-1.333-2 0-.33 5-.67 10-1 15a3.595 3.595 0 0 0-1.5-1 37.013 37.013 0 0 0-1 12h-3c.17 3.682 0 7.348-.5 11-.67-1.333-1.33-1.333-2 0-2.07 5.007-3.57 10.341-4.5 16a647.058 647.058 0 0 1-10 20c-.95 1.545-1.29 3.212-1 5h-3c.16 1.699-.01 3.366-.5 5a85.522 85.522 0 0 0-8.5 13.5c1.02 1.049 1.18 2.216.5 3.5-.33-.333-.67-.667-1-1-1.25 2.671-3.08 4.837-5.5 6.5.33.333.67.667 1 1-1.91 1.701-3.08 3.867-3.5 6.5-.33-.333-.67-.667-1-1-2.33 2.15-3.66 4.817-4 8-2 1.753-4.17 3.087-6.5 4-2.21 4.39-5.05 8.39-8.5 12a4.949 4.949 0 0 0-.5 3 1711.388 1711.388 0 0 1-34 30.5c-.95.483-1.95.649-3 .5v3a38.209 38.209 0 0 1-8 3v3h-4v3c-2.76 1.511-5.76 2.844-9 4 .21.586.54 1.086 1 1.5l-4 1c-1.33.667-1.33 1.333 0 2-2.08.192-4.08.692-6 1.5.21.586.54 1.086 1 1.5a21.438 21.438 0 0 0-5 0 2252.07 2252.07 0 0 0-12 8 8774.73 8774.73 0 0 0-26 12 338.727 338.727 0 0 1-15 4.5 3.627 3.627 0 0 1-1 1.5l-10 1c1.13 1.016.8 1.683-1 2l-10 1c.33.333.67.667 1 1-11.9 2.283-23.9 3.95-36 5 2.43.451 2.6 1.285.5 2.5-19.76-.827-39.59-1.327-59.5-1.5.33-.333.67-.667 1-1-6.83-1.736-13.66-1.903-20.5-.5-.62-.949-.45-1.782.5-2.5-4.39-.226-8.72-.726-13-1.5-2.03 1.129-2.36.629-1-1.5a133.937 133.937 0 0 1-21-3.5v-3c-2.69.164-5.35-.003-8-.5-5.56-1.472-10.56-3.972-15-7.5a13.117 13.117 0 0 0-7-1v-3c-2.1.299-4.1-.034-6-1a83.206 83.206 0 0 0-14-8c-1.05.18-2.05.513-3 1-.17-.897-.5-1.897-1-3-1.63-.83-3.3-.997-5-.5.33-.333.67-.667 1-1-1.45-1.117-3.12-1.784-5-2 1.33-.667 1.33-1.333 0-2l-5-1c.33-.333.67-.667 1-1a12.465 12.465 0 0 1-5-4 8.43 8.43 0 0 0-4-.5v-3h-4v-3a128.938 128.938 0 0 1-18-12v-3c-3.05-.696-5.72-2.196-8-4.5-6.83-7.17-13.83-14.504-21-22 .33-.333.67-.667 1-1a4.939 4.939 0 0 0-3-.5v-3h-3c-3.88-6.772-8.21-12.605-13-17.5.33-.333.67-.667 1-1-1.94-.908-2.94-2.408-3-4.5h-3c.45-2.51-.22-4.51-2-6-.19-2.412-1.53-3.412-4-3-.21-1.644.12-3.144 1-4.5-1.67-1-3-2.333-4-4 .33-.333.67-.667 1-1a66.607 66.607 0 0 1-5.5-7.5c-4-8.106-8-16.106-12-24-.5-2.31-.66-4.643-.5-7h-3a214.839 214.839 0 0 1-3-18h-3c.61-4.135-.22-7.801-2.5-11a61.814 61.814 0 0 0-1.5-11 3.595 3.595 0 0 1-1.5-1c-.33-5-.67-10-1-15-.92-.43-1.75-.764-2.5-1-.25-26.41.08-53.077 1-80 5.02-1.06 9.85-1.06 14.5 0a57.37 57.37 0 0 0 13.5-3.5 64.14 64.14 0 0 1 10-9c-.88-1.356-1.21-2.856-1-4.5 5.39-1.572 8.56-5.239 9.5-11 2.47-1.956 4.31-4.289 5.5-7h3c.67-2 1.33-4 2-6h3a4.949 4.949 0 0 1 .5-3c3.74-1.741 6.91-4.241 9.5-7.5 2.67-2 5.33-4 8-6l12-6c3.15.012 5.82-.988 8-3l18-1c-.33-.333-.67-.667-1-1 3.67-2 7.33-2 11 0-.33.333-.67.667-1 1l24 1c.81.308 1.47.808 2 1.5a423.02 423.02 0 0 0 29 1.5c6.11 2.058 12.45 3.058 19 3 3.01 1.921 6.34 2.921 10 3 5 3.516 10.34 6.349 16 8.5v3c3.87 1.304 6.54 3.971 8 8a934.531 934.531 0 0 1 1.5 43c1.67 2.333 3.33 4.667 5 7 1 5.676 4 10.009 9 13 .41 3.415 2.07 6.082 5 8 1.33 2.667 2.67 5.333 4 8 .67-1.333 1.33-1.333 2 0 .22 2.988 1.22 5.655 3 8 .67 7.333.67 14.667 0 22-1.85 3.52-3.52 7.187-5 11-.83 12.014-.67 24.014.5 36a89.017 89.017 0 0 0 5.5 14c4.68 3.738 9.18 7.571 13.5 11.5l4 1c-.33.333-.67.667-1 1a124.14 124.14 0 0 0 19 8c-.33.333-.67.667-1 1 3.33.667 6.67.667 10 0-.33-.333-.67-.667-1-1 2.94-.97 5.94-1.804 9-2.5.21-.586.54-1.086 1-1.5 2.31-.497 4.64-.663 7-.5a4.949 4.949 0 0 1 .5-3c8.46-.401 16.96.099 25.5 1.5-.33.333-.67.667-1 1 2.38.511 4.71 1.178 7 2-.33.333-.67.667-1 1l6 1c1.33.667 1.33 1.333 0 2 3.53.556 6.2 2.39 8 5.5.82.886 1.82 1.219 3 1-.22 1.175.11 2.175 1 3 1.2 1.797 2.86 2.797 5 3v3h3a89.126 89.126 0 0 1 3 12h3c.33 13.35 0 26.683-1 40-.59.209-1.09.543-1.5 1-.33 5-.67 10-1 15-2.01 2.969-2.84 6.302-2.5 10 .19 3.69.53 7.357 1 11h3v-3a4.939 4.939 0 0 0 3-.5c4.66-5.934 8.82-12.1 12.5-18.5.5-1.973.66-3.973.5-6h3v-6h3c-.16-2.027 0-4.027.5-6 .67 1.333 1.33 1.333 2 0 .53-3.005 1.7-5.672 3.5-8 3.48-4.253 6.98-8.587 10.5-13a284.49 284.49 0 0 1 3.5-8c2.7.12 3.37-.88 2-3a27.972 27.972 0 0 0 5-5c2.2-4.26 4.2-8.594 6-13a524.08 524.08 0 0 0 4-26 11.45 11.45 0 0 0-2.5-2c-.17-8.686-.67-17.352-1.5-26-1.51-3.449-2.51-7.116-3-11a3.595 3.595 0 0 1-1.5-1 2458.781 2458.781 0 0 0-7-32c-.33.333-.67.667-1 1a54.73 54.73 0 0 0-4-14 38.685 38.685 0 0 0-3.5-14c1.34-1.875.84-3.208-1.5-4a64.892 64.892 0 0 0-2.5-8 201.853 201.853 0 0 1-16-7.5c-3.79.092-7.13-.908-10-3-3.99-.031-7.65-1.031-11-3-1.94-.743-3.77-.576-5.5.5-.62-.949-.45-1.782.5-2.5a9.39 9.39 0 0 1-2.5-1.5c-8.39-.201-16.89.299-25.5 1.5 2.43.451 2.6 1.285.5 2.5-3.41-1.122-6.91-1.289-10.5-.5-3.35 1.969-7.01 2.969-11 3a2486.65 2486.65 0 0 1-16 7c-4.67.667-9.33.667-14 0-5.57-1.468-10.57-3.968-15-7.5v-3c-1.18.219-2.18-.114-3-1a46.607 46.607 0 0 0-6-5.5c.33-.333.67-.667 1-1l-3-1.5a116.786 116.786 0 0 1-6.5-12c-.17-4.181-1.33-8.014-3.5-11.5.33-8.332.33-16.165 0-23.5 2.67-1.925 3.67-4.592 3-8h3v-6h3c-.16-1.699.01-3.366.5-5 2.34-4.514 5.01-8.847 8-13 2.03-6.956 4.53-12.956 7.5-18a74.263 74.263 0 0 0 .5-21c-5.41-7.369-12.57-12.202-21.5-14.5a116.355 116.355 0 0 0-26.5-2.5 196.718 196.718 0 0 1-30.5 1.5 74.343 74.343 0 0 1-18-8.5c-1.8-1.195-2.8-2.862-3-5h-3c.16-1.699-.01-3.366-.5-5a57.672 57.672 0 0 1-5-9 120.65 120.65 0 0 1 0-22c2.02-3.648 3.85-7.315 5.5-11h3c.85-3.861 2.85-7.028 6-9.5-1.02-1.049-1.18-2.216-.5-3.5.67 1.333 1.33 1.333 2 0 .67-3 .67-6 0-9-1.74-1.216-2.74-2.882-3-5-.91-1.939-2.41-2.939-4.5-3-1.97-2.91-2.97-6.244-3-10 2.77.08 5.44-.42 8-1.5-.95-.718-1.12-1.55-.5-2.5 3.54 1.372 7.04 1.206 10.5-.5-.33-.333-.67-.667-1-1l10-1a10.647 10.647 0 0 0 3-2.5c.59.21 1.09.543 1.5 1a1150.52 1150.52 0 0 1 30.5-5.5c22-.667 44-.667 66 0 10.24 1.68 20.4 3.514 30.5 5.5.41-.457.91-.79 1.5-1a10.647 10.647 0 0 0 3 2.5l10 1c-1.33.667-1.33 1.333 0 2l9 1c-.33.333-.67.667-1 1 .92.374 1.75.874 2.5 1.5l5-1c1.49.753 1.65 1.586.5 2.5l8 1c1.33.667 1.33 1.333 0 2l7 1a38.765 38.765 0 0 0 7 4.5c1.92.808 3.92 1.308 6 1.5 2.33 1.667 4.67 3.333 7 5 1.29.49 2.63.657 4 .5v3c1.7-.16 3.37.007 5 .5 7.43 5.388 15.43 10.055 24 14-.46.414-.79.914-1 1.5 1.92.808 3.92 1.308 6 1.5-.46.414-.79.914-1 1.5 1.19.929 2.52 1.262 4 1v3h3v3c1.48-.262 2.81.071 4 1a311.162 311.162 0 0 0 22 20z"/><path style="opacity:.912" fill="#efc72f" d="M1087.5 78.5a75.238 75.238 0 0 0 16 4c4.64-.495 8.97-1.829 13-4 .64 23.225-10.02 32.058-32 26.5-2.71-1.015-5.04-2.515-7-4.5a82.033 82.033 0 0 0 10-22z"/><path style="opacity:.004" fill="#efc72f" d="M2151.5 99.5c1.33.667 1.33.667 0 0z"/><path style="opacity:.006" fill="#efc72f" d="M1585.5 218.5c.84 1.141 1.51 2.474 2 4-1 1.333-2 1.333-3 0a6.809 6.809 0 0 0 1-4z"/><path style="opacity:.966" fill="#efc72f" d="M338.5 222.5c31.78-2.056 45.28 12.61 40.5 44-8.76 17.96-22.927 24.46-42.5 19.5-19.426-9.586-25.593-24.753-18.5-45.5 4.544-8.677 11.377-14.677 20.5-18z"/><path style="opacity:.965" fill="#efc72f" d="M423.5 222.5c24.983-3.17 38.983 7.663 42 32.5-1.979 20.312-13.145 31.145-33.5 32.5-22.943-2.28-33.61-14.946-32-38 2.724-13.551 10.558-22.551 23.5-27z"/><path style="opacity:.008" fill="#efc72f" d="M1589.5 232.5c-2.42-1.728-2.59-3.728-.5-6 1.8 1.865 1.97 3.865.5 6z"/><path style="opacity:.015" fill="#efc72f" d="M1589.5 232.5c1.35-.671 2.51-.671 3.5 0 .5 2.31.66 4.643.5 7h3a28.77 28.77 0 0 1-1 10c2.75 2.45 4.09 5.616 4 9.5.05 1.728-.45 3.228-1.5 4.5a65.508 65.508 0 0 1-4.5-12.5c.46-.414.79-.914 1-1.5a43.286 43.286 0 0 0-3-5.5 3.92 3.92 0 0 1 1-2 130.838 130.838 0 0 1-4-7.5c.36-.683.7-1.35 1-2z"/><path style="opacity:.987" fill="#efc72f" d="M-.5 253.5c42.001-.167 84.001 0 126 .5 45.46 2.797 80.626 22.963 105.5 60.5 24.666 47.659 24.666 95.325 0 143-23.547 36.374-57.047 56.874-100.5 61.5-43.665.5-87.332.667-131 .5v-266zm84 74c12.38-.37 24.714.13 37 1.5 29.323 7.632 43.657 26.632 43 57 .657 30.368-13.677 49.368-43 57a262.658 262.658 0 0 1-37 1.5v-117z"/><path style="opacity:.983" fill="#efc72f" d="M1126.5 304.5c22.55-1.21 41.72 6.123 57.5 22a31.345 31.345 0 0 1 5 8c.5-8.994.67-17.994.5-27h84v213h-84c.17-9.006 0-18.006-.5-27-9.42 15.071-22.92 24.238-40.5 27.5-50.71 5.632-83.88-15.868-99.5-64.5-7.59-29.758-7.26-59.425 1-89 9.06-29.721 28.22-49.554 57.5-59.5 6.41-1.562 12.74-2.729 19-3.5zm28 74c22.82.653 34.49 12.486 35 35.5-.79 24.794-13.45 36.127-38 34-15.33-5.946-22.99-17.279-23-34 .1-18.454 8.77-30.287 26-35.5z"/><path style="opacity:.98" fill="#efc72f" d="M1391.5 304.5c26.87-1.702 51.21 5.131 73 20.5 16.4 14.971 26.4 33.471 30 55.5a938.344 938.344 0 0 1-75 .5c-6.1-15.55-17.1-20.55-33-15-5 8.367-2.66 14.034 7 17a826.48 826.48 0 0 0 43 10c18.51 3.171 34.01 11.671 46.5 25.5 10.37 16.301 13.37 33.968 9 53-5.77 18.771-17.6 32.271-35.5 40.5-17.03 7.473-34.87 10.973-53.5 10.5-29.65.894-56.15-7.606-79.5-25.5-15.16-13.829-23.83-30.996-26-51.5 27.01-.333 54.01 0 81 1 3.39 11.629 11.22 17.629 23.5 18 4.38-.26 8.38-1.593 12-4 3.82-7.536 1.65-12.703-6.5-15.5a4448.333 4448.333 0 0 1-57-14c-36.4-12.619-49.9-37.786-40.5-75.5 7.54-22.542 22.71-37.376 45.5-44.5 11.9-3.528 23.9-5.695 36-6.5z"/><path style="opacity:.983" fill="#efc72f" d="M673.5 306.5c49.131-4.682 78.964 16.985 89.5 65a219.322 219.322 0 0 1 2 20c.5 42.999.667 85.999.5 129h-84c.466-41.034-.034-82.034-1.5-123-3.817-14.253-13.151-21.586-28-22-14.836.409-24.17 7.743-28 22a2679.748 2679.748 0 0 0-1.5 123h-84v-213h84c-.166 10.339 0 20.672.5 31 12.459-17.642 29.293-28.309 50.5-32z"/><path style="opacity:.984" fill="#efc72f" d="M276.5 307.5h84c-.167 40.335 0 80.668.5 121 5.371 19.111 17.871 26.611 37.5 22.5 9.672-3.672 15.839-10.506 18.5-20.5 1.472-40.96 1.972-81.96 1.5-123h84v213h-84c.166-10.339 0-20.672-.5-31-18.544 24.843-43.377 35.343-74.5 31.5-29.839-3.505-50.006-19.338-60.5-47.5a113.009 113.009 0 0 1-6-27c-.5-46.332-.667-92.665-.5-139z"/><path style="opacity:.983" fill="#efc72f" d="M778.5 307.5h94a6901.262 6901.262 0 0 0 38.5 106 19518.79 19518.79 0 0 1 36.5-105c31-1.333 62-1.333 93 0l-135 312c-30.659 1-61.326 1.333-92 1a2464.569 2464.569 0 0 1 53-112.5 10758.169 10758.169 0 0 1-88-201.5z"/><path style="opacity:.984" fill="#efc72f" d="M1536.5 307.5h84v213h-84v-213z"/><path style="opacity:.004" fill="#efc72f" d="M1673.5 343.5c-.55-1.831-.55-3.497 0-5 1.29 1.799 1.29 3.465 0 5z"/><path style="opacity:.006" fill="#efc72f" d="M2019.5 439.5c1.6-.188 2.94.312 4 1.5-1.67.667-3.33.667-5 0 .56-.383.89-.883 1-1.5z"/><path style="opacity:.004" fill="#efc72f" d="M1731.5 538.5c-.67.667-.67.667 0 0zM2140.5 579.5c1.33.667 1.33.667 0 0z"/></svg>